<svg xmlns="http://www.w3.org/2000/svg" xmlns:xlink="http://www.w3.org/1999/xlink" width="779pt" height="302pt" viewBox="63 139 12979 5028"><g fill="none"><rect width="1513" height="386" x="4425" y="764" stroke="#000" stroke-width="8"/><text x="4519" y="1053" fill="#000" font-family="Helvetica" font-size="180" font-style="normal" font-weight="normal" text-anchor="start" xml:space="preserve">xen</text><rect width="1513" height="385" x="4425" y="1246" stroke="#000" stroke-width="8"/><text x="4519" y="1535" fill="#000" font-family="Helvetica" font-size="180" font-style="normal" font-weight="normal" text-anchor="start" xml:space="preserve">qemu</text><rect width="1513" height="385" x="4425" y="1728" stroke="#000" stroke-width="8"/><text x="4519" y="2017" fill="#000" font-family="Helvetica" font-size="180" font-style="normal" font-weight="normal" text-anchor="start" xml:space="preserve">openvz</text><rect width="1513" height="385" x="4425" y="2210" stroke="#000" stroke-width="8"/><text x="4519" y="2499" fill="#000" font-family="Helvetica" font-size="180" font-style="normal" font-weight="normal" text-anchor="start" xml:space="preserve">lxc</text><rect width="1513" height="386" x="4425" y="2691" stroke="#000" stroke-width="8"/><text x="4519" y="2980" fill="#000" font-family="Helvetica" font-size="180" font-style="normal" font-weight="normal" text-anchor="start" xml:space="preserve">test</text><rect width="1513" height="386" x="4425" y="3173" stroke="#000" stroke-width="8"/><text x="4519" y="3462" fill="#000" font-family="Helvetica" font-size="180" font-style="normal" font-weight="normal" text-anchor="start" xml:space="preserve">remote</text><rect width="1514" height="386" x="11328" y="764" stroke="#000" stroke-width="8"/><text x="11423" y="1053" fill="#000" font-family="Helvetica" font-size="180" font-style="normal" font-weight="normal" text-anchor="start" xml:space="preserve">xen</text><rect width="1514" height="385" x="11328" y="1246" stroke="#000" stroke-width="8"/><text x="11423" y="1535" fill="#000" font-family="Helvetica" font-size="180" font-style="normal" font-weight="normal" text-anchor="start" xml:space="preserve">qemu</text><rect width="1514" height="385" x="11328" y="1728" stroke="#000" stroke-width="8"/><text x="11423" y="2017" fill="#000" font-family="Helvetica" font-size="180" font-style="normal" font-weight="normal" text-anchor="start" xml:space="preserve">openvz</text><rect width="1514" height="385" x="11328" y="2210" stroke="#000" stroke-width="8"/><text x="11423" y="2499" fill="#000" font-family="Helvetica" font-size="180" font-style="normal" font-weight="normal" text-anchor="start" xml:space="preserve">lxc</text><rect width="1514" height="386" x="11328" y="2691" stroke="#000" stroke-width="8"/><text x="11423" y="2980" fill="#000" font-family="Helvetica" font-size="180" font-style="normal" font-weight="normal" text-anchor="start" xml:space="preserve">test</text><rect width="1514" height="386" x="11328" y="3173" stroke="#000" stroke-width="8"/><text x="11423" y="3462" fill="#000" font-family="Helvetica" font-size="180" font-style="normal" font-weight="normal" text-anchor="start" xml:space="preserve">remote</text><rect width="1512" height="771" x="75" y="1342" stroke="#000" stroke-width="8"/><defs><clipPath id="cp0"><path d="M 63,139 H 13042 V 5167 H 63 z M 2932,1690 3084,1728 2932,1766 3108,1735 3108,1721z" clip-rule="evenodd"/></clipPath></defs><polyline stroke="#000" stroke-width="8" points="1587 1728 3101 1728" clip-path="url(#cp0)"/><polyline stroke="#000" stroke-miterlimit="8" stroke-width="8" points="2932 1690 3084 1728 2932 1766"/><defs><clipPath id="cp1"><path d="M 63,139 H 13042 V 5167 H 63 z M 7471,1690 7623,1728 7471,1766 7647,1735 7647,1721z" clip-rule="evenodd"/></clipPath></defs><polyline stroke="#000" stroke-width="8" points="5938 3365 6883 3365 7262 1728 7640 1728" clip-path="url(#cp1)"/><polyline stroke="#000" stroke-miterlimit="8" stroke-width="8" points="7471 1690 7623 1728 7471 1766"/><defs><clipPath id="cp2"><path d="M 63,139 H 13042 V 5167 H 63 z M 4256,3327 4408,3365 4256,3403 4432,3372 4432,3358z" clip-rule="evenodd"/></clipPath></defs><polyline stroke="#000" stroke-width="8" points="3101 1728 3858 1728 4141 3365 4425 3365" clip-path="url(#cp2)"/><polyline stroke="#000" stroke-miterlimit="8" stroke-width="8" points="4256 3327 4408 3365 4256 3403"/><rect width="3026" height="3179" x="3101" y="572" stroke="#000" stroke-width="8"/><polyline stroke="#000" stroke-width="60" points="3101 572 3101 3751"/><polyline stroke="#000" stroke-dasharray="10 30" stroke-width="60" points="3858 572 3858 3751"/><defs><clipPath id="cp3"><path d="M 63,139 H 13042 V 5167 H 63 z M 9835,1690 9987,1728 9835,1766 10011,1735 10011,1721z" clip-rule="evenodd"/></clipPath></defs><polyline stroke="#000" stroke-width="8" points="9154 1728 10004 1728" clip-path="url(#cp3)"/><polyline stroke="#000" stroke-miterlimit="8" stroke-width="8" points="9835 1690 9987 1728 9835 1766"/><rect width="1514" height="771" x="7640" y="1342" stroke="#000" stroke-width="8"/><defs><clipPath id="cp4"><path d="M 63,139 H 13042 V 5167 H 63 z M 11159,2364 11311,2402 11159,2440 11335,2409 11335,2395z" clip-rule="evenodd"/></clipPath></defs><polyline stroke="#000" stroke-width="8" points="10004 1728 10760 1728 10950 2402 11328 2402" clip-path="url(#cp4)"/><polyline stroke="#000" stroke-miterlimit="8" stroke-width="8" points="11159 2364 11311 2402 11159 2440"/><rect width="3026" height="3179" x="10004" y="572" stroke="#000" stroke-width="8"/><polyline stroke="#000" stroke-width="60" points="10004 572 10004 3751"/><polyline stroke="#000" stroke-dasharray="10 30" stroke-width="60" points="10760 572 10760 3751"/><text x="170" y="1728" fill="#000" font-family="Helvetica" font-size="180" font-style="normal" font-weight="normal" text-anchor="start" xml:space="preserve">Application</text><text x="1966" y="1631" fill="#000" font-family="Helvetica" font-size="156" font-style="normal" font-weight="normal" text-anchor="start" xml:space="preserve">URI</text><g><text x="0" y="0" fill="#000" font-family="Helvetica" font-size="180" font-style="normal" font-weight="normal" text-anchor="start" transform="translate(3763,4040) rotate(-305)" xml:space="preserve">Driver API</text></g><g><text x="0" y="0" fill="#000" font-family="Helvetica" font-size="180" font-style="normal" font-weight="normal" text-anchor="start" transform="translate(3101,4040) rotate(-305)" xml:space="preserve">Public API</text></g><g><text x="0" y="0" fill="#000" font-family="Helvetica" font-size="180" font-style="normal" font-weight="normal" text-anchor="start" transform="translate(4992,4040) rotate(-305)" xml:space="preserve">Driver Impl</text></g><text x="3763" y="379" fill="#000" font-family="Helvetica" font-size="216" font-style="normal" font-weight="normal" text-anchor="start" xml:space="preserve">libvirt</text><text x="1966" y="2017" fill="#000" font-family="Helvetica" font-size="156" font-style="normal" font-weight="normal" text-anchor="start" xml:space="preserve">lxc://host/</text><text x="7734" y="1728" fill="#000" font-family="Helvetica" font-size="180" font-style="normal" font-weight="normal" text-anchor="start" xml:space="preserve">libvirtd</text><g><text x="0" y="0" fill="#000" font-family="Helvetica" font-size="180" font-style="normal" font-weight="normal" text-anchor="start" transform="translate(10666,4040) rotate(-305)" xml:space="preserve">Driver API</text></g><g><text x="0" y="0" fill="#000" font-family="Helvetica" font-size="180" font-style="normal" font-weight="normal" text-anchor="start" transform="translate(10004,4040) rotate(-305)" xml:space="preserve">Public API</text></g><g><text x="0" y="0" fill="#000" font-family="Helvetica" font-size="180" font-style="normal" font-weight="normal" text-anchor="start" transform="translate(11896,4040) rotate(-305)" xml:space="preserve">Driver Impl</text></g><text x="10666" y="379" fill="#000" font-family="Helvetica" font-size="216" font-style="normal" font-weight="normal" text-anchor="start" xml:space="preserve">libvirt</text></g></svg>