<svg xmlns="http://www.w3.org/2000/svg" xmlns:xlink="http://www.w3.org/1999/xlink" width="587pt" height="475pt" viewBox="1188 322 9774 7905"><g fill="none"><rect width="2438" height="609" x="8208" y="1291" stroke="#000" stroke-width="8"/><text x="8360" y="1748" fill="#000" font-family="Helvetica" font-size="288" font-style="normal" font-weight="normal" text-anchor="start" xml:space="preserve">xen</text><rect width="2438" height="608" x="8208" y="2054" stroke="#000" stroke-width="8"/><text x="8360" y="2510" fill="#000" font-family="Helvetica" font-size="288" font-style="normal" font-weight="normal" text-anchor="start" xml:space="preserve">qemu</text><rect width="2438" height="609" x="8208" y="2815" stroke="#000" stroke-width="8"/><text x="8360" y="3272" fill="#000" font-family="Helvetica" font-size="288" font-style="normal" font-weight="normal" text-anchor="start" xml:space="preserve">openvz</text><rect width="2438" height="610" x="8208" y="3577" stroke="#000" stroke-width="8"/><text x="8360" y="4033" fill="#000" font-family="Helvetica" font-size="288" font-style="normal" font-weight="normal" text-anchor="start" xml:space="preserve">lxc</text><rect width="2438" height="609" x="8208" y="4339" stroke="#000" stroke-width="8"/><text x="8360" y="4795" fill="#000" font-family="Helvetica" font-size="288" font-style="normal" font-weight="normal" text-anchor="start" xml:space="preserve">test</text><rect width="2438" height="610" x="8208" y="5100" stroke="#000" stroke-width="8"/><text x="8360" y="5557" fill="#000" font-family="Helvetica" font-size="288" font-style="normal" font-weight="normal" text-anchor="start" xml:space="preserve">remote</text><rect width="2437" height="1218" x="1200" y="2206" stroke="#000" stroke-width="8"/><defs><clipPath id="cp0"><path d="M 1188,322 H 10962 V 8227 H 1188 z M 5815,2754 6058,2815 5815,2876 6082,2822 6082,2808z" clip-rule="evenodd"/></clipPath></defs><polyline stroke="#000" stroke-width="8" points="3637 2815 6075 2815" clip-path="url(#cp0)"/><polyline stroke="#000" stroke-miterlimit="8" stroke-width="8" points="5815 2754 6058 2815 5815 2876"/><defs><clipPath id="cp1"><path d="M 1188,322 H 10962 V 8227 H 1188 z M 7948,3820 8191,3881 7948,3942 8215,3888 8215,3874z" clip-rule="evenodd"/></clipPath></defs><polyline stroke="#000" stroke-width="8" points="6075 2815 7294 2815 7598 3881 8208 3881" clip-path="url(#cp1)"/><polyline stroke="#000" stroke-miterlimit="8" stroke-width="8" points="7948 3820 8191 3881 7948 3942"/><rect width="4875" height="5027" x="6075" y="987" stroke="#000" stroke-width="8"/><polyline stroke="#000" stroke-width="60" points="6075 987 6075 6014"/><polyline stroke="#000" stroke-dasharray="10 30" stroke-width="60" points="7294 987 7294 6014"/><text x="1352" y="2815" fill="#000" font-family="Helvetica" font-size="288" font-style="normal" font-weight="normal" text-anchor="start" xml:space="preserve">Application</text><text x="4246" y="2662" fill="#000" font-family="Helvetica" font-size="240" font-style="normal" font-weight="normal" text-anchor="start" xml:space="preserve">URI</text><text x="4246" y="3272" fill="#000" font-family="Helvetica" font-size="240" font-style="normal" font-weight="normal" text-anchor="start" xml:space="preserve">lxc:///</text><g><text x="0" y="0" fill="#000" font-family="Helvetica" font-size="288" font-style="normal" font-weight="normal" text-anchor="start" transform="translate(7142,6472) rotate(-305)" xml:space="preserve">Driver API</text></g><g><text x="0" y="0" fill="#000" font-family="Helvetica" font-size="288" font-style="normal" font-weight="normal" text-anchor="start" transform="translate(6075,6472) rotate(-305)" xml:space="preserve">Public API</text></g><g><text x="0" y="0" fill="#000" font-family="Helvetica" font-size="288" font-style="normal" font-weight="normal" text-anchor="start" transform="translate(9121,6472) rotate(-305)" xml:space="preserve">Driver Impl</text></g><text x="7142" y="682" fill="#000" font-family="Helvetica" font-size="336" font-style="normal" font-weight="normal" text-anchor="start" xml:space="preserve">libvirt</text></g></svg>