<svg xmlns="http://www.w3.org/2000/svg" xmlns:xlink="http://www.w3.org/1999/xlink" width="964" height="449pt" viewBox="428 353 12044 7469"><g fill="none"><rect width="4125" height="1350" x="450" y="375" stroke="#000" stroke-width="15"/><rect width="3825" height="1125" x="1125" y="2475" stroke="#000" stroke-width="15"/><defs><clipPath id="cp0"><path d="M 428,353 H 12472 V 7822 H 428 z M 2131,2343 2079,2374 2173,2484 2184,2477z" clip-rule="evenodd"/></clipPath></defs><polyline stroke="#000" stroke-width="8" points="1725 1725 2175 2475" clip-path="url(#cp0)"/><polygon stroke="#000" stroke-miterlimit="8" stroke-width="8" points="2079 2374 2167 2461 2131 2343 2079 2374"/><rect width="3375" height="1200" x="3150" y="5700" stroke="#000" stroke-width="8"/><rect width="2250" height="900" x="7875" y="6825" stroke="#000" stroke-width="8"/><rect width="7800" height="3075" x="2550" y="4725" stroke="#000" stroke-width="15"/><rect width="2700" height="1410" x="8850" y="1950" stroke="#000" stroke-width="8"/><defs><clipPath id="cp1"><path d="M 428,353 H 12472 V 7822 H 428 z M 4936,4317 4899,4364 5026,4434 5034,4424z" clip-rule="evenodd"/></clipPath></defs><polyline stroke="#000" stroke-width="8" points="3975 3600 5025 4425" clip-path="url(#cp1)"/><polygon stroke="#000" stroke-miterlimit="8" stroke-width="8" points="4899 4364 5012 4415 4936 4317 4899 4364"/><defs><clipPath id="cp2"><path d="M 428,353 H 12472 V 7822 H 428 z M 5539,4410 5519,4353 5391,4421 5396,4434z" clip-rule="evenodd"/></clipPath></defs><polyline stroke="#000" stroke-width="8" points="8925 3225 5400 4425" clip-path="url(#cp2)"/><polygon stroke="#000" stroke-miterlimit="8" stroke-width="8" points="5519 4353 5415 4420 5539 4410 5519 4353"/><defs><clipPath id="cp3"><path d="M 428,353 H 12472 V 7822 H 428 z M 7749,7365 7736,7423 7880,7433 7883,7420z" clip-rule="evenodd"/></clipPath></defs><polyline stroke="#000" stroke-width="8" points="5625 6900 7875 7425" clip-path="url(#cp3)"/><polygon stroke="#000" stroke-miterlimit="8" stroke-width="8" points="7736 7423 7859 7421 7749 7365 7736 7423"/><defs><clipPath id="cp4"><path d="M 428,353 H 12472 V 7822 H 428 z M 10261,7605 10261,7545 10118,7568 10118,7582z" clip-rule="evenodd"/></clipPath></defs><polyline stroke="#000" stroke-width="8" points="11400 3375 11400 7575 10125 7575" clip-path="url(#cp4)"/><polygon stroke="#000" stroke-miterlimit="8" stroke-width="8" points="10261 7545 10141 7575 10261 7605 10261 7545"/><rect width="4050" height="3150" x="8400" y="975" stroke="#000" stroke-width="15"/><defs><clipPath id="cp5"><path d="M 428,353 H 12472 V 7822 H 428 z M 8714,2670 8714,2730 8857,2707 8857,2693z" clip-rule="evenodd"/></clipPath></defs><polyline stroke="#000" stroke-width="8" points="10125 7125 10725 7125 10725 4425 7725 4425 7725 2700 8850 2700" clip-path="url(#cp5)"/><polygon stroke="#000" stroke-miterlimit="8" stroke-width="8" points="8714 2730 8834 2700 8714 2670 8714 2730"/><text x="1350" y="2895" fill="#000" font-family="Helvetica" font-size="144" font-style="normal" font-weight="normal" text-anchor="start" xml:space="preserve">virConnectOpenReadOnly(uri)</text><text x="1350" y="3090" fill="#000" font-family="Helvetica" font-size="144" font-style="normal" font-weight="normal" text-anchor="start" xml:space="preserve">virConnectOpenAuth(uri, auth, flags)</text><text x="3300" y="5850" fill="#000" font-family="Times" font-size="144" font-style="normal" font-weight="normal" text-anchor="start" xml:space="preserve">virConnectOpen:</text><text x="3300" y="6045" fill="#000" font-family="Times" font-size="144" font-style="normal" font-weight="normal" text-anchor="start" xml:space="preserve">virConnectOpenReadOnly:</text><text x="3300" y="6240" fill="#000" font-family="Times" font-size="144" font-style="normal" font-weight="normal" text-anchor="start" xml:space="preserve">virConnectOpenAuth:</text><text x="3975" y="6600" fill="#000" font-family="Times" font-size="144" font-style="normal" font-weight="normal" text-anchor="start" xml:space="preserve">do_open():</text><text x="8025" y="7125" fill="#000" font-family="Times" font-size="168" font-style="normal" font-weight="normal" text-anchor="start" xml:space="preserve">Rremote driver</text><text x="5025" y="4650" fill="#000" font-family="Helvetica" font-size="288" font-style="normal" font-weight="normal" text-anchor="start" xml:space="preserve">libvirt</text><text x="9000" y="2175" fill="#000" font-family="Times" font-size="168" font-style="normal" font-weight="normal" text-anchor="start" xml:space="preserve">remoteDispatchOpen():</text><text x="9300" y="2475" fill="#000" font-family="Times" font-size="144" font-style="normal" font-weight="normal" text-anchor="start" xml:space="preserve">...</text><text x="9300" y="2670" fill="#000" font-family="Times" font-size="144" font-style="normal" font-weight="normal" text-anchor="start" xml:space="preserve">virConnectOpen()</text><text x="9300" y="2865" fill="#000" font-family="Times" font-size="144" font-style="normal" font-weight="normal" text-anchor="start" xml:space="preserve">virConnectOpenReadOnly()</text><text x="9300" y="3060" fill="#000" font-family="Times" font-size="144" font-style="normal" font-weight="normal" text-anchor="start" xml:space="preserve">...</text><text x="8250" y="7350" fill="#000" font-family="Times" font-size="144" font-style="normal" font-weight="normal" text-anchor="start" xml:space="preserve">remoteOpen()</text><text x="600" y="1050" fill="#000" font-family="Helvetica" font-size="192" font-style="normal" font-weight="normal" text-anchor="start" xml:space="preserve">&quot;virsh -c qemu:///system list --all&quot;</text><text x="1350" y="2700" fill="#000" font-family="Helvetica" font-size="144" font-style="normal" font-weight="normal" text-anchor="start" xml:space="preserve">virConnectOpen(uri)</text><text x="9750" y="825" fill="#000" font-family="Helvetica" font-size="288" font-style="normal" font-weight="normal" text-anchor="start" xml:space="preserve">libvirtd</text></g></svg>