<svg xmlns="http://www.w3.org/2000/svg" xmlns:xlink="http://www.w3.org/1999/xlink" width="536" height="134pt" viewBox="1188 792 6699 2220"><g fill="none"><rect width="900" height="450" x="2775" y="2400" stroke="#000" stroke-width="8"/><text x="2925" y="2700" fill="#000" font-family="Helvetica" font-size="144" font-style="normal" font-weight="normal" text-anchor="start" xml:space="preserve">libvirtd</text><rect width="900" height="450" x="5400" y="2400" stroke="#000" stroke-width="8"/><text x="5550" y="2700" fill="#000" font-family="Helvetica" font-size="144" font-style="normal" font-weight="normal" text-anchor="start" xml:space="preserve">libvirtd</text><defs><clipPath id="cp0"><path d="M 1188,792 H 7887 V 3012 H 1188 z M 5768,1159 5633,1159 5682,1368 5718,1368z" clip-rule="evenodd"/></clipPath></defs><polyline stroke="#000" stroke-width="30" points="3375 1350 3375 825 5700 825 5700 1350" clip-path="url(#cp0)"/><polygon fill="#000" stroke="#000" stroke-miterlimit="8" stroke-width="8" points="5633 1159 5700 1339 5768 1159 5633 1159"/><rect width="2625" height="1800" x="1200" y="1200" stroke="#000" stroke-width="8"/><rect width="2625" height="1800" x="5250" y="1200" stroke="#000" stroke-width="8"/><rect width="675" height="600" x="6225" y="1350" stroke="#000" stroke-width="8"/><rect width="675" height="600" x="5400" y="1350" stroke="#000" stroke-width="8"/><rect width="675" height="600" x="3000" y="1350" stroke="#000" stroke-width="8"/><rect width="675" height="600" x="2175" y="1350" stroke="#000" stroke-width="8"/><rect width="675" height="600" x="1350" y="1350" stroke="#000" stroke-width="8"/><text x="1425" y="1725" fill="#000" font-family="Helvetica" font-size="144" font-style="normal" font-weight="normal" text-anchor="start" xml:space="preserve">VM-A</text><text x="2250" y="1725" fill="#000" font-family="Helvetica" font-size="144" font-style="normal" font-weight="normal" text-anchor="start" xml:space="preserve">VM-B</text><text x="3075" y="1725" fill="#000" font-family="Helvetica" font-size="144" font-style="normal" font-weight="normal" text-anchor="start" xml:space="preserve">VM-C</text><text x="5475" y="1725" fill="#000" font-family="Helvetica" font-size="144" font-style="normal" font-weight="normal" text-anchor="start" xml:space="preserve">VM-C</text><text x="6300" y="1725" fill="#000" font-family="Helvetica" font-size="144" font-style="normal" font-weight="normal" text-anchor="start" xml:space="preserve">VM-D</text><text x="1350" y="2850" fill="#000" font-family="Helvetica" font-size="144" font-style="normal" font-weight="normal" text-anchor="start" xml:space="preserve">Source Host</text><text x="6825" y="2850" fill="#000" font-family="Helvetica" font-size="144" font-style="normal" font-weight="normal" text-anchor="start" xml:space="preserve">Dest Host</text></g></svg>