<svg xmlns="http://www.w3.org/2000/svg" xmlns:xlink="http://www.w3.org/1999/xlink" width="536" height="290pt" viewBox="1188 1188 6699 4824"><g fill="none"><rect width="900" height="450" x="2775" y="2400" stroke="#000" stroke-width="8"/><text x="2925" y="2700" fill="#000" font-family="Helvetica" font-size="144" font-style="normal" font-weight="normal" text-anchor="start" xml:space="preserve">libvirtd</text><rect width="900" height="450" x="5400" y="2400" stroke="#000" stroke-width="8"/><text x="5550" y="2700" fill="#000" font-family="Helvetica" font-size="144" font-style="normal" font-weight="normal" text-anchor="start" xml:space="preserve">libvirtd</text><rect width="2625" height="1800" x="1200" y="1200" stroke="#000" stroke-width="8"/><rect width="2625" height="1800" x="5250" y="1200" stroke="#000" stroke-width="8"/><rect width="675" height="600" x="5400" y="1350" stroke="#000" stroke-width="8"/><rect width="675" height="600" x="6225" y="1350" stroke="#000" stroke-width="8"/><rect width="675" height="600" x="3000" y="1350" stroke="#000" stroke-width="8"/><rect width="675" height="600" x="2175" y="1350" stroke="#000" stroke-width="8"/><rect width="675" height="600" x="1350" y="1350" stroke="#000" stroke-width="8"/><defs><clipPath id="cp0"><path d="M 1188,1188 H 7887 V 6012 H 1188 z M 3233,3041 3368,3041 3318,2832 3282,2832z" clip-rule="evenodd"/></clipPath></defs><polyline stroke="#000" stroke-width="30" points="4350 4275 4350 3600 3300 3600 3300 2850" clip-path="url(#cp0)"/><polygon fill="#000" stroke="#000" stroke-miterlimit="8" stroke-width="8" points="3368 3041 3300 2861 3233 3041 3368 3041"/><defs><clipPath id="cp1"><path d="M 1188,1188 H 7887 V 6012 H 1188 z M 5708,3041 5843,3041 5793,2832 5757,2832z" clip-rule="evenodd"/></clipPath></defs><polyline stroke="#000" stroke-width="30" points="4800 4275 4800 3600 5775 3600 5775 2850" clip-path="url(#cp1)"/><polygon fill="#000" stroke="#000" stroke-miterlimit="8" stroke-width="8" points="5843 3041 5775 2861 5708 3041 5843 3041"/><rect width="2625" height="1875" x="3225" y="4125" stroke="#000" stroke-width="8"/><rect width="2325" height="450" x="3375" y="5100" stroke="#000" stroke-width="8"/><defs><clipPath id="cp2"><path d="M 1188,1188 H 7887 V 6012 H 1188 z M 3859,4433 3859,4568 4068,4518 4068,4482z" clip-rule="evenodd"/></clipPath></defs><polyline stroke="#000" stroke-width="30" points="3750 5100 3750 4500 4050 4500" clip-path="url(#cp2)"/><polygon fill="#000" stroke="#000" stroke-miterlimit="8" stroke-width="8" points="3859 4568 4039 4500 3859 4433 3859 4568"/><rect width="1050" height="450" x="4050" y="4275" stroke="#000" stroke-width="8"/><text x="6825" y="2850" fill="#000" font-family="Helvetica" font-size="144" font-style="normal" font-weight="normal" text-anchor="start" xml:space="preserve">Dest Host</text><text x="1350" y="2850" fill="#000" font-family="Helvetica" font-size="144" font-style="normal" font-weight="normal" text-anchor="start" xml:space="preserve">Source Host</text><text x="1425" y="1725" fill="#000" font-family="Helvetica" font-size="144" font-style="normal" font-weight="normal" text-anchor="start" xml:space="preserve">VM-A</text><text x="2250" y="1725" fill="#000" font-family="Helvetica" font-size="144" font-style="normal" font-weight="normal" text-anchor="start" xml:space="preserve">VM-B</text><text x="3075" y="1725" fill="#000" font-family="Helvetica" font-size="144" font-style="normal" font-weight="normal" text-anchor="start" xml:space="preserve">VM-C</text><text x="5475" y="1725" fill="#000" font-family="Helvetica" font-size="144" font-style="normal" font-weight="normal" text-anchor="start" xml:space="preserve">VM-C</text><text x="6300" y="1725" fill="#000" font-family="Helvetica" font-size="144" font-style="normal" font-weight="normal" text-anchor="start" xml:space="preserve">VM-D</text><text x="4725" y="5850" fill="#000" font-family="Helvetica" font-size="144" font-style="normal" font-weight="normal" text-anchor="start" xml:space="preserve">Client Host</text><text x="3525" y="5400" fill="#000" font-family="Helvetica" font-size="144" font-style="normal" font-weight="normal" text-anchor="start" xml:space="preserve">management app</text><text x="4200" y="4575" fill="#000" font-family="Helvetica" font-size="144" font-style="normal" font-weight="normal" text-anchor="start" xml:space="preserve">libvirt.so</text></g></svg>